<?xml version="1.0" encoding="UTF-8"?>
<svg id="_레이어_1" xmlns="http://www.w3.org/2000/svg" version="1.1" viewBox="0 0 841.9 1190.6">
  <!-- Generator: Adobe Illustrator 30.3.0, SVG Export Plug-In . SVG Version: 2.1.1 Build 126)  -->
  <defs>
    <style>
      .st0 {
        fill: #231d1a;
      }
    </style>
  </defs>
  <path class="st0" d="M391.2,588.6l-57.5-11.5-84.4-135.8-166.8,76.5,90.1,158.7,145.7-57.4,55.6,24.9,19.2-24.9-1.9-30.6Z"/>
  <path class="st0" d="M671.2,676.6l88.2-158.7-164.9-74.6-86.3,133.8-57.5,11.5-1.9,30.6,21.1,24.9,53.7-24.9,147.6,57.4Z"/>
  <path class="st0" d="M374,644.1l-28.8,51.6-153.4,38.2,19.2,181.7,180.2-36.3-9.6-158.7,38.3-42.1-17.3-26.8-28.8-7.6Z"/>
  <path class="st0" d="M420,678.5l40.3,42.1-9.6,158.7,178.3,36.3,23-181.7-153.4-38.2-28.8-51.6-32.6,7.6-17.3,26.8Z"/>
  <path class="st0" d="M450.7,588.6l-5.8-59.3,99.7-122.4-124.6-131.9-122.7,131.9,99.7,122.4-5.8,59.3,28.8,11.5,30.7-11.5Z"/>
</svg>