<?xml version="1.0" encoding="UTF-8"?>
<svg id="_레이어_1" xmlns="http://www.w3.org/2000/svg" version="1.1" viewBox="0 0 841.9 1190.6">
  <!-- Generator: Adobe Illustrator 30.3.0, SVG Export Plug-In . SVG Version: 2.1.1 Build 126)  -->
  <defs>
    <style>
      .st0 {
        fill: #231d1a;
      }
    </style>
  </defs>
  <path class="st0" d="M420.9,948.6c-9.1,0-16.5-7.4-16.5-16.5V258.5c0-9.1,7.4-16.5,16.5-16.5s16.5,7.4,16.5,16.5v673.6c0,9.1-7.4,16.5-16.5,16.5Z"/>
  <path class="st0" d="M715.6,774.9c-2.7,0-5.4-.7-8-2.1L118.2,446.6c-8-4.4-10.9-14.5-6.5-22.4,4.4-8,14.5-10.9,22.4-6.5l589.4,326.2c8,4.4,10.9,14.5,6.5,22.4-3,5.4-8.6,8.5-14.5,8.5h0Z"/>
  <path class="st0" d="M126.3,774.9c-5.8,0-11.4-3.1-14.5-8.5-4.4-8-1.5-18,6.5-22.4l589.4-326.2c8-4.4,18-1.5,22.4,6.5s1.5,18-6.5,22.4L134.2,772.8c-2.5,1.4-5.3,2.1-8,2.1h.1Z"/>
</svg>