<?xml version="1.0" encoding="UTF-8"?>
<svg id="_레이어_1" xmlns="http://www.w3.org/2000/svg" version="1.1" viewBox="0 0 841.9 1190.6">
  <!-- Generator: Adobe Illustrator 30.3.0, SVG Export Plug-In . SVG Version: 2.1.1 Build 126)  -->
  <defs>
    <style>
      .st0 {
        fill: #231d1a;
      }
    </style>
  </defs>
  <path class="st0" d="M747.6,557.8v-.5c-2.5-44.3-22.6-83.8-56.7-111.1-34.1-27.3-78.2-38.7-120.9-31.5l-7.4,1.2-.7-7.5c-3.7-36.7-20-70.8-45.9-96.2-27.2-26.6-61.9-41.2-100.5-42.1-43.4-1-86.6,17.8-114.9,49.9-21,23.8-33.4,52-36.9,83.8l-.7,6.6-6.7-.4c-3.2-.2-6.5-.3-9.8-.3-31.8,0-63.6,10.1-89.7,28.4-29.8,20.9-50.6,51.5-58.7,86.1-16,68.3,18,140.4,80.9,171.4l6.1,3-2.9,6.2c-14.8,32-18.4,68.1-10.2,101.8,8.6,35.1,28.9,65.1,58.8,86.6,24.5,17.6,53.8,27,84.2,27,5.4,0,10.9-.3,16.3-.9,34.9-3.8,67.9-19.6,93-44.3l4.6-4.5,4.9,4.2c25.8,22.3,58.3,35.8,91.6,38.1,3.5.2,7,.4,10.4.4,31.1,0,60.7-9.7,86.1-28.4,28.9-21.2,48.5-50.4,56.7-84.4,7.8-32.4,4.6-67.7-9.2-99.4l-2.5-5.7,5.3-3.1c21.8-12.9,40.2-31.2,53.2-52.7,13.1-21.8,20.7-47.1,22.1-73.2l.3-5.2c0-1.1,0-2.3-.2-3.5ZM624.2,659c-8.5,2.6-14.3,7.9-16.7,15.4-2.7,8.6-.5,19.1,6,27.4,16.1,20.8,23,47.1,19.3,74.1-3.7,27.2-18.1,51.9-39.5,67.9-21.8,16.2-48.8,22.6-76.1,18-27.6-4.7-52.4-20.6-67.9-43.6-5.4-8-14.6-12.8-23.9-12.5-8.4.3-15.5,4.6-19.9,12.1-14.9,25.5-39.7,43.7-68,49.9-7.2,1.6-14.4,2.4-21.7,2.4-20,0-39.4-6.1-56.2-17.8-23.1-16-38.4-41.5-41.9-69.9-3.5-29,5.4-58.2,24.6-80,6.5-7.4,8.7-19.3,5.4-28.9-1.8-5.2-6-11.7-15.6-13.5-30-5.5-56.4-22.5-72.5-46.9-14.6-22.2-19.4-48.8-13.3-75,6.5-28.1,23.5-51,48-64.6,15.5-8.6,33.2-13,51.2-13s24.7,2,36.7,6.1c7.7,2.6,14.4,1.5,20.2-3.2,7.6-6.3,11.8-18.1,10.3-28.8-4.1-28.5,4.8-57.5,24.4-79.5,20.1-22.7,48.8-35.3,78.5-34.6,29.4.7,56.8,14.5,75,37.9,19.3,24.8,26.4,56.7,19.3,87.5-2.3,10.2,1.3,20.4,9.5,26.7,8.1,6.2,18.5,7,27.8,2,31.8-17.1,69.1-16.6,99.8,1.3,30.7,17.9,49.5,50,50.3,86h0c0,.1,0,.3,0,.3-1.1,45.4-29.8,83.3-73.1,96.6Z"/>
</svg>