<?xml version="1.0" encoding="UTF-8"?>
<svg id="_레이어_1" xmlns="http://www.w3.org/2000/svg" version="1.1" viewBox="0 0 841.9 1190.6">
  <!-- Generator: Adobe Illustrator 30.3.0, SVG Export Plug-In . SVG Version: 2.1.1 Build 126)  -->
  <defs>
    <style>
      .st0 {
        fill: #231d1a;
      }
    </style>
  </defs>
  <path class="st0" d="M420.9,637.4c32.6,0,59.1-26.5,59.1-59.2s-26.5-59.2-59.1-59.2-59.1,26.5-59.1,59.2,26.4,59.2,59.1,59.2Z"/>
  <path class="st0" d="M290.8,583.3c32.6,0,59.1-26.5,59.1-59.2s-26.4-59.2-59.1-59.2-59.1,26.5-59.1,59.2,26.5,59.2,59.1,59.2Z"/>
  <path class="st0" d="M236.9,453c32.6,0,59.1-26.5,59.1-59.2s-26.4-59.2-59.1-59.2-59.1,26.5-59.1,59.2,26.5,59.2,59.1,59.2Z"/>
  <path class="st0" d="M290.8,322.8c32.6,0,59.1-26.5,59.1-59.2s-26.5-59.2-59.1-59.2-59.1,26.5-59.1,59.2,26.5,59.2,59.1,59.2Z"/>
  <path class="st0" d="M421.2,268.9c32.6,0,59.1-26.5,59.1-59.2s-26.4-59.2-59.1-59.2-59.1,26.5-59.1,59.2,26.5,59.2,59.1,59.2Z"/>
  <path class="st0" d="M551.1,323c32.6,0,59.1-26.5,59.1-59.2s-26.5-59.2-59.1-59.2-59.1,26.5-59.1,59.2,26.4,59.2,59.1,59.2Z"/>
  <path class="st0" d="M605,453.3c32.6,0,59.1-26.5,59.1-59.2s-26.5-59.2-59.1-59.2-59.1,26.5-59.1,59.2,26.4,59.2,59.1,59.2Z"/>
  <path class="st0" d="M551.1,583.5c32.6,0,59.1-26.5,59.1-59.2s-26.4-59.2-59.1-59.2-59.1,26.5-59.1,59.2,26.5,59.2,59.1,59.2Z"/>
  <path class="st0" d="M420.9,1040c32.6,0,59.1-26.5,59.1-59.2s-26.5-59.2-59.1-59.2-59.1,26.5-59.1,59.2,26.4,59.2,59.1,59.2Z"/>
  <path class="st0" d="M349.8,929.5c1.5-32.6-23.8-60.3-56.4-61.8-32.6-1.5-60.2,23.8-61.7,56.4-1.5,32.6,23.8,60.3,56.4,61.8,32.6,1.5,60.2-23.8,61.7-56.4Z"/>
  <path class="st0" d="M236.9,855.7c32.6,0,59.1-26.5,59.1-59.2s-26.4-59.2-59.1-59.2-59.1,26.5-59.1,59.2,26.5,59.2,59.1,59.2Z"/>
  <path class="st0" d="M290.8,725.4c32.6,0,59.1-26.5,59.1-59.2s-26.5-59.2-59.1-59.2-59.1,26.5-59.1,59.2,26.5,59.2,59.1,59.2Z"/>
  <path class="st0" d="M551.1,725.6c32.6,0,59.1-26.5,59.1-59.2s-26.5-59.2-59.1-59.2-59.1,26.5-59.1,59.2,26.4,59.2,59.1,59.2Z"/>
  <path class="st0" d="M605,855.9c32.6,0,59.1-26.5,59.1-59.2s-26.5-59.2-59.1-59.2-59.1,26.5-59.1,59.2,26.4,59.2,59.1,59.2Z"/>
  <path class="st0" d="M551.1,986.2c32.6,0,59.1-26.5,59.1-59.2s-26.4-59.2-59.1-59.2-59.1,26.5-59.1,59.2,26.5,59.2,59.1,59.2Z"/>
</svg>