<?xml version="1.0" encoding="UTF-8"?>
<svg id="_레이어_1" xmlns="http://www.w3.org/2000/svg" version="1.1" viewBox="0 0 841.9 1190.6">
  <!-- Generator: Adobe Illustrator 30.3.0, SVG Export Plug-In . SVG Version: 2.1.1 Build 126)  -->
  <defs>
    <style>
      .st0 {
        fill: #231d1a;
      }
    </style>
  </defs>
  <path class="st0" d="M352.9,650c-53-14.5-100.9-46.6-134.7-90.4-34.9-45.2-53.4-99.3-53.4-156.5s26.6-132.7,75-181.1c48.4-48.4,112.7-75,181.1-75s132.7,26.6,181.1,75c48.4,48.4,75,112.7,75,181.1s-18.5,111.3-53.4,156.5c-33.8,43.7-81.7,75.8-134.7,90.4l-6.4-23.1c48.1-13.2,91.4-42.3,122.1-82,31.7-40.9,48.4-89.9,48.4-141.8s-24.1-120.3-68-164.1c-43.8-43.8-102.1-68-164.1-68s-120.3,24.1-164.1,68c-43.8,43.8-68,102.1-68,164.1s16.7,100.9,48.4,141.8c30.7,39.6,74,68.7,122.1,81.9l-6.3,23.1Z"/>
  <path class="st0" d="M421,1043.6c-68.4,0-132.7-26.6-181.1-75-48.4-48.4-75-112.7-75-181.1s18.5-111.3,53.4-156.5c33.8-43.7,81.7-75.8,134.7-90.4l6.4,23.1c-48.1,13.2-91.4,42.3-122.1,82-31.7,40.9-48.4,89.9-48.4,141.8s24.1,120.3,68,164.1c43.8,43.8,102.1,68,164.1,68s120.3-24.1,164.1-68c43.8-43.8,68-102.1,68-164.1s-16.7-100.9-48.4-141.8c-30.7-39.6-74-68.7-122.1-81.9l6.3-23.1c53,14.5,100.9,46.6,134.7,90.4,34.9,45.2,53.4,99.3,53.4,156.5s-26.6,132.7-75,181.1c-48.4,48.4-112.7,75-181.1,75Z"/>
</svg>