<?xml version="1.0" encoding="UTF-8"?>
<svg id="_레이어_1" xmlns="http://www.w3.org/2000/svg" version="1.1" viewBox="0 0 841.9 1190.6">
  <!-- Generator: Adobe Illustrator 30.3.0, SVG Export Plug-In . SVG Version: 2.1.1 Build 126)  -->
  <defs>
    <style>
      .st0 {
        fill: #231d1a;
      }
    </style>
  </defs>
  <path class="st0" d="M459,492.1c-42.6-16.1-93.1-2.5-122.3,32.2-30,35.6-35.1,87.5-11.5,127.9,23.7,40.4,70.6,60.9,116.4,52.9,51.4-8.9,87-54.4,90.1-105,.1-1.2.2-2.6.2-3.9,0-1.7,0-3.3-.3-4.8-3-44.6-30.2-83.3-72.6-99.3h0ZM420.9,656.8c-33.1,0-60.6-27.5-60.6-60.6s27.4-60.6,60.6-60.6,59.6,27.5,60.6,60.6c-.9,33.1-26.8,60.6-60.6,60.6Z"/>
  <path class="st0" d="M259.9,488.4c45.1,18.2,98.1,3.8,128-34.4,26.3-33.6,29.7-76.5,13.6-113.2,7.1-3.8,13.8-8.3,19.9-13.5,5.4,5.1,11.3,9.7,17.6,13.7-15.9,37.8-9.5,82.9,17.6,115.1,29.3,34.8,79.7,48.1,122.3,32.2,43.2-16.1,72.8-57.8,72.9-104.1.1-39.1-20.8-73.4-52.3-93.5,20.1-47.6,3.8-105.3-40.4-135.5-42.2-28.9-95.4-22.2-132.4,8.1-37.3-34.9-95.7-43-139.8-11.5-45,32.1-57.4,88.5-37.1,135.6-32.9,17.3-55.5,50.6-59.4,88.8-4.9,48.2,25.1,94.3,69.4,112.2ZM240.6,378.3c3.4-28.8,26.3-48.1,53.6-53.1,20-3.7,22.5-29.1,11.1-42.1-23.7-27.2-19.1-69.7,10.8-90.3,30.1-20.7,69.6-9.3,87.6,21.2,10.1,17.1,33,15.4,43.5,0,18.9-27.8,58.1-36,85.8-15.9,30.8,22.3,31.3,62.3,9.3,90.8-6.3,8.2-4,20.1,2.1,28.1.1.2.3.4.5.6.3.4.6.8,1,1.2.2.2.4.4.6.6,1.5,1.5,3.1,2.9,4.8,3.9,2.3,1.4,4.6,2.3,6.9,2.9,53.4,17.4,58.2,95.6,3.1,115-24,8.5-51.7,1-67.7-19.1-19.5-24.5-15.7-55.6,2.6-79.5,10.4-13.5-1.2-32.7-15-37-16.3-5.1-28.2-14.9-36.9-29.5-10.1-17.1-33-15.4-43.5,0-10.5,15.5-25.7,23.6-43.8,27-20,3.8-22.5,29.1-11.1,42.1,41.9,48.2-11.3,121.5-69.8,95.8-24-10.5-38.7-36.7-35.6-62.6h0Z"/>
  <path class="st0" d="M651.7,802c-4.6-70-72.5-123.1-142.3-101.9-63.6,19.3-95,91.1-70.4,149.5-6.3,4-12.2,8.5-17.6,13.6-6.1-5.2-12.8-9.7-19.9-13.5,16.1-36.7,12.7-79.6-13.6-113.2-29.9-38.2-83-52.7-128-34.4-44.3,17.9-74.3,64-69.4,112.2,3.9,38.2,26.5,71.5,59.4,88.8-20.3,47.2-7.9,103.5,37.1,135.6,44.1,31.5,102.5,23.4,139.8-11.5,36.9,30.3,90.2,37,132.4,8.1,44.1-30.2,60.5-87.9,40.4-135.5,30.1-19.2,49.4-51.2,52-88.4.3-1.6.4-3.3.3-5.1,0-1.6,0-3-.2-4.5h0ZM557.4,864.7c-13.8,4.3-25.5,23.5-15,37,21.8,28.3,21.7,68.8-9.3,90.8-27.9,19.8-66.8,12.1-85.8-15.9-10.4-15.4-33.4-17.1-43.5,0-18,30.5-57.5,42-87.6,21.2-30-20.7-34.5-63.1-10.8-90.3,11.4-13,8.9-38.4-11.1-42.1-27.4-5.1-50.1-24.2-53.6-53.1-3.2-26.1,11.8-52,35.6-62.6,58.5-26.2,111.6,47.9,69.8,95.8-11.4,13.1-8.9,38.4,11.1,42.1,18.1,3.4,33.2,11.5,43.8,27,10.5,15.4,33.4,17.1,43.5,0,8.6-14.6,20.6-24.5,36.9-29.5,13.8-4.3,25.5-23.5,15-37-26.2-34.1-17.8-85.3,26.4-99.2,39.3-12.4,77.7,17.6,78.8,57.7-.8,27.5-17.8,50.1-44.1,58.3h0Z"/>
</svg>