<?xml version="1.0" encoding="UTF-8"?>
<svg id="_레이어_1" xmlns="http://www.w3.org/2000/svg" version="1.1" viewBox="0 0 841.9 1190.6">
  <!-- Generator: Adobe Illustrator 30.3.0, SVG Export Plug-In . SVG Version: 2.1.1 Build 126)  -->
  <defs>
    <style>
      .st0 {
        fill: #231d1a;
      }
    </style>
  </defs>
  <path class="st0" d="M421,1027.7c17.4,0,25.2-12.1,25.2-24.2v-428.3l8.3,6.2c9.9,7.4,20.6,13.5,31.8,18.1,26.6,10.8,55.8,13.2,84.7,6.8,28.9-6.4,54.4-20.9,73.9-42,19.7-21.3,32.3-47.9,36.6-76.7,4.3-28.7,0-57.8-12.5-84.1l-.9-2c-19.6-39.7-58-68.1-103.2-76.3l-4.6-.8.4-4.7c3.2-40.2-10.9-80.6-38.7-110.8-27.2-29.6-64.2-45.9-104-46h-.3c-39.7,0-76.5,16.3-103.7,45.9-28,30.5-42.1,71.3-38.6,111.8l.4,4.5-4.4,1c-43.9,10-81,39.7-99.2,79.5-12.1,26.4-15.9,55.5-11.1,84.3,4.8,28.8,17.9,55.1,38,76.1,19.5,20.4,44.9,34.4,73.4,40.4,28.4,6,57.3,3.6,83.4-7.1,11.2-4.6,21.9-10.7,31.8-18.1l8.3-6.2v428.5c0,16.6,13.1,24.2,25.2,24.2ZM395.6,466.2c-.5,19.8-6.8,38.5-18.5,54-10.9,14.6-25.7,25.7-43,32.4-35.6,13.7-73.8,5.1-99.8-22.5-25.8-27.3-32.3-65.8-16.9-100.3,15.9-35.6,51-57.9,89.3-57,7.5.2,15.3-3.9,20.3-10.7,4.8-6.5,6.2-14.1,3.9-20.9-10.4-31-5.6-64.8,12.9-90.5,17.1-23.8,44.1-37.5,74-37.5s56.9,13.7,74,37.7c18.5,25.9,23.2,59.9,12.6,90.9-2.3,6.8-.5,15.1,4.6,21.8,5.1,6.6,12.3,10.3,19.4,9.8,40.8-2.9,75.9,15.4,93.8,48.9,16.6,31.1,14,68.9-5.8,97.3h.9l-7.7,8.6c-18,20.1-42.3,30.8-67.7,30.8s-22-2-32.9-6c-37.1-13.7-61.6-47.7-62.5-86.7,0-2.5-.4-4.9-1.1-7.1v-.3c-3.3-13.7-17.6-18.8-29.4-16.5h-.2c-9,1.5-15.8,6.7-18.4,14.5v.2c-1.2,2.9-1.7,5.9-1.8,9Z"/>
</svg>