<?xml version="1.0" encoding="UTF-8"?>
<svg id="_레이어_1" xmlns="http://www.w3.org/2000/svg" version="1.1" viewBox="0 0 841.9 1190.6">
  <!-- Generator: Adobe Illustrator 30.3.0, SVG Export Plug-In . SVG Version: 2.1.1 Build 126)  -->
  <defs>
    <style>
      .st0 {
        fill: #231d1a;
      }
    </style>
  </defs>
  <path class="st0" d="M476.9,882.2h-111.9v111.9h111.9v-111.9Z"/>
  <path class="st0" d="M700.8,322.4h-112v111.9h112v-111.9Z"/>
  <path class="st0" d="M476.9,210.5h-111.9v111.9h111.9v-111.9Z"/>
  <path class="st0" d="M700.8,770.2h-112v111.9h112v-111.9Z"/>
  <path class="st0" d="M476.9,322.4h-111.9v111.9h111.9v-111.9Z"/>
  <path class="st0" d="M476.9,546.3h-111.9v111.9h111.9v-111.9Z"/>
  <path class="st0" d="M253,322.4h-112v111.9h112v-111.9Z"/>
  <path class="st0" d="M365,434.4h-112v111.9h112v-111.9Z"/>
  <path class="st0" d="M365,658.3h-112v111.9h112v-111.9Z"/>
  <path class="st0" d="M588.8,434.4h-111.9v111.9h111.9v-111.9Z"/>
  <path class="st0" d="M476.9,770.2h-111.9v111.9h111.9v-111.9Z"/>
  <path class="st0" d="M588.8,658.3h-111.9v111.9h111.9v-111.9Z"/>
  <path class="st0" d="M253,770.2h-112v111.9h112v-111.9Z"/>
</svg>