<?xml version="1.0" encoding="UTF-8"?>
<svg id="_레이어_1" xmlns="http://www.w3.org/2000/svg" version="1.1" viewBox="0 0 841.9 1190.6">
  <!-- Generator: Adobe Illustrator 30.3.0, SVG Export Plug-In . SVG Version: 2.1.1 Build 126)  -->
  <defs>
    <style>
      .st0 {
        fill: #231d1a;
      }
    </style>
  </defs>
  <path class="st0" d="M483.1,906h-124.3v124.3h124.3v-124.3Z"/>
  <path class="st0" d="M731.7,284.6h-124.3v124.3h124.3v-124.3Z"/>
  <path class="st0" d="M483.1,160.3h-124.3v124.3h124.3v-124.3Z"/>
  <path class="st0" d="M731.7,781.7h-124.3v124.3h124.3v-124.3Z"/>
  <path class="st0" d="M483.1,284.6h-124.3v124.3h124.3v-124.3Z"/>
  <path class="st0" d="M483.1,533.2h-124.3v124.3h124.3v-124.3Z"/>
  <path class="st0" d="M234.5,284.6h-124.3v124.3h124.3v-124.3Z"/>
  <path class="st0" d="M358.8,408.9h-124.3v124.3h124.3v-124.3Z"/>
  <path class="st0" d="M358.8,657.4h-124.3v124.3h124.3v-124.3Z"/>
  <path class="st0" d="M607.3,408.9h-124.3v124.3h124.3v-124.3Z"/>
  <path class="st0" d="M483.1,781.7h-124.3v124.3h124.3v-124.3Z"/>
  <path class="st0" d="M607.3,657.4h-124.3v124.3h124.3v-124.3Z"/>
  <path class="st0" d="M234.5,781.7h-124.3v124.3h124.3v-124.3Z"/>
</svg>