<?xml version="1.0" encoding="UTF-8"?>
<svg id="_레이어_1" xmlns="http://www.w3.org/2000/svg" version="1.1" viewBox="0 0 841.9 1190.6">
  <!-- Generator: Adobe Illustrator 30.3.0, SVG Export Plug-In . SVG Version: 2.1.1 Build 126)  -->
  <defs>
    <style>
      .st0 {
        fill: #231d1a;
      }
    </style>
  </defs>
  <path class="st0" d="M423.4,920c32.8,0,59.5-26.5,59.5-59.2s-26.6-59.2-59.5-59.2-59.5,26.5-59.5,59.2,26.6,59.2,59.5,59.2Z"/>
  <path class="st0" d="M423.1,788.6c32.8,0,59.5-26.5,59.5-59.2s-26.6-59.2-59.5-59.2-59.5,26.5-59.5,59.2,26.6,59.2,59.5,59.2Z"/>
  <path class="st0" d="M191.1,789.3c32.8,0,59.5-26.5,59.5-59.2s-26.6-59.2-59.5-59.2-59.5,26.5-59.5,59.2,26.6,59.2,59.5,59.2Z"/>
  <path class="st0" d="M305.2,723.3c32.9,0,59.5-26.5,59.5-59.2s-26.6-59.2-59.5-59.2-59.5,26.5-59.5,59.2,26.6,59.2,59.5,59.2Z"/>
  <path class="st0" d="M188.6,523.8c32.8,0,59.5-26.5,59.5-59.2s-26.6-59.2-59.5-59.2-59.5,26.5-59.5,59.2,26.6,59.2,59.5,59.2Z"/>
  <path class="st0" d="M303.1,589.2c32.8,0,59.5-26.5,59.5-59.2s-26.6-59.2-59.5-59.2-59.5,26.5-59.5,59.2,26.6,59.2,59.5,59.2Z"/>
  <path class="st0" d="M418.5,388.9c32.8,0,59.5-26.5,59.5-59.2s-26.6-59.2-59.5-59.2-59.5,26.5-59.5,59.2,26.6,59.2,59.5,59.2Z"/>
  <path class="st0" d="M418.8,520.4c32.8,0,59.5-26.5,59.5-59.2s-26.6-59.2-59.5-59.2-59.5,26.5-59.5,59.2,26.6,59.2,59.5,59.2Z"/>
  <path class="st0" d="M650.9,519.5c32.8,0,59.5-26.5,59.5-59.2s-26.6-59.2-59.5-59.2-59.5,26.5-59.5,59.2,26.6,59.2,59.5,59.2Z"/>
  <path class="st0" d="M536.7,585.6c32.9,0,59.5-26.5,59.5-59.2s-26.6-59.2-59.5-59.2-59.5,26.5-59.5,59.2,26.6,59.2,59.5,59.2Z"/>
  <path class="st0" d="M653.3,785.1c32.9,0,59.5-26.5,59.5-59.2s-26.6-59.2-59.5-59.2-59.5,26.5-59.5,59.2,26.6,59.2,59.5,59.2Z"/>
  <path class="st0" d="M538.8,719.7c32.8,0,59.5-26.5,59.5-59.2s-26.6-59.2-59.5-59.2-59.5,26.5-59.5,59.2,26.6,59.2,59.5,59.2Z"/>
</svg>