<?xml version="1.0" encoding="UTF-8"?>
<svg id="_레이어_1" xmlns="http://www.w3.org/2000/svg" version="1.1" viewBox="0 0 841.9 1190.6">
  <!-- Generator: Adobe Illustrator 30.3.0, SVG Export Plug-In . SVG Version: 2.1.1 Build 126)  -->
  <defs>
    <style>
      .st0 {
        fill: #231815;
      }
    </style>
  </defs>
  <path class="st0" d="M828.4,486.9c-29.7-91.4-120.4-146-212.2-133.4-14.5-93.8-95.6-165.9-193.2-165.9s-175.9,69.6-192.3,161c-40.8-6.7-82.5-.3-120,18.9-46.5,23.7-81,64.2-97.2,114-29.7,91.4,11.7,189,93.4,232.9-43.4,84.4-20,190.5,59,247.9,34.6,25.2,74.8,37.3,114.6,37.3s98.4-18.7,135.5-54.4c37.5,37.8,87.8,57.8,138.9,57.8s80-12.2,114.6-37.3c77.6-56.5,101.4-159.8,61.2-243.4,37-18.6,66.9-48.3,86-85.9,23.7-46.6,27.9-99.7,11.7-149.4h0ZM795.9,625.7c-17,33.4-43.7,59.8-76.6,76.2-2.1-3.3-4.2-6.5-6.6-9.8-39-53.8-102-83.9-168.4-80.4l1.2,23.3c58.6-3.1,114,23.5,148.4,70.8,1.2,1.7,2.3,3.4,3.5,5.1-.6.2-1.1.4-1.7.6-55.6,18.1-116,6.8-161.6-30l-14.6,18.1c35.4,28.7,78.8,43.7,122.9,43.7s40.7-3.2,60.5-9.6c2.1-.7,4.2-1.5,6.4-2.3,36.2,73.8,15.2,165.5-53.4,215.4-37.2,27.1-82.7,38-128.2,30.8-37-5.8-70.3-23.2-95.9-49.5,2.5-3,4.8-6.1,7.2-9.3,39-53.8,48.1-123,24.3-185.3l-21.7,8.3c21,54.8,12.9,115.9-21.4,163.3-1.2,1.7-2.5,3.3-3.8,4.9-.4-.5-.7-1-1.1-1.5-34.4-47.4-42.4-108.5-21.4-163.3l-21.7-8.3c-23.8,62.2-14.7,131.4,24.3,185.3,1.3,1.9,2.8,3.6,4.2,5.4-25.3,24.7-57.4,40.9-92.9,46.5-45.4,7.2-91-3.7-128.2-30.8-37.2-27.1-61.7-67.1-68.9-112.6-5.8-37,.3-74.1,17.3-106.7,3.6,1.4,7.3,2.8,11.1,4,19.9,6.4,40.3,9.6,60.5,9.6,44.1,0,87.4-15,122.9-43.7l-14.6-18.1c-45.6,36.9-106,48.1-161.6,30-2-.7-3.9-1.3-5.8-2.1.3-.5.7-1,1.1-1.5,34.4-47.4,89.8-73.9,148.4-70.8l1.2-23.3c-66.4-3.5-129.4,26.6-168.4,80.4-1.3,1.9-2.6,3.7-3.8,5.6-72.8-38.4-109.6-124.9-83.4-205.7,14.2-43.9,44.6-79.5,85.6-100.4,33.4-17,70.5-22.7,106.7-16.5-.2,3.9-.4,7.8-.4,11.8,0,66.5,33.3,127.9,89,164.2l12.7-19.5c-49.2-32-78.5-86.1-78.5-144.7s0-4.1.1-6.2c.6.2,1.2.3,1.7.5,55.6,18.1,97.9,62.7,113.1,119.5l22.4-6c-17.2-64.3-65.3-115-128.4-135.6-2.1-.7-4.3-1.3-6.5-1.9,14.1-81,84.8-142.8,169.6-142.8s158,64,170.4,147.1c-3.8,1-7.5,2.1-11.3,3.3-63.1,20.5-111.1,71.2-128.4,135.6l22.4,6c15.2-56.7,57.5-101.3,113.1-119.5,2-.7,3.9-1.2,5.9-1.8v1.9c0,58.6-29.3,112.7-78.5,144.7l12.7,19.5c55.7-36.4,89-97.7,89-164.2s0-4.5-.2-6.8c81.3-11.6,161.8,36.6,188,117.5,14.2,43.9,10.5,90.6-10.4,131.6h.3Z"/>
</svg>