<?xml version="1.0" encoding="UTF-8"?>
<svg id="_레이어_1" xmlns="http://www.w3.org/2000/svg" version="1.1" viewBox="0 0 841.9 1190.6">
  <!-- Generator: Adobe Illustrator 30.3.0, SVG Export Plug-In . SVG Version: 2.1.1 Build 126)  -->
  <defs>
    <style>
      .st0 {
        fill: #231d1a;
      }
    </style>
  </defs>
  <path class="st0" d="M246.3,710.2c-16.3,0-32.7-2.5-48.6-7.7-82.3-26.8-127.5-115.5-100.8-197.8,26.8-82.3,115.5-127.5,197.8-100.8,50.7,16.5,89.2,57.1,103.1,108.7l-23.2,6.2c-11.7-43.7-44.4-78.1-87.3-92.1-69.7-22.7-144.9,15.6-167.6,85.4-22.7,69.7,15.6,144.9,85.4,167.6,42.9,14,89.6,5.3,124.8-23.1l15.1,18.7c-28.5,23-63.3,35-98.6,35Z"/>
  <path class="st0" d="M310.2,916.3c-32,0-64.3-9.7-92.1-29.9-33.9-24.6-56.2-61-62.8-102.4-6.6-41.4,3.4-82.9,28.1-116.8,31.3-43.1,81.9-67.2,135.2-64.5l-1.2,24c-45.2-2.3-88,18.1-114.6,54.6-20.9,28.7-29.3,63.9-23.8,99,5.6,35.1,24.4,65.9,53.2,86.8,59.4,43.1,142.7,29.9,185.8-29.4,26.5-36.6,32.7-83.6,16.6-125.8l22.4-8.6c19.1,49.8,11.8,105.4-19.5,148.5-30.7,42.2-78.6,64.7-127.2,64.7Z"/>
  <path class="st0" d="M526.7,919.1c-8.3,0-16.6-.7-24.9-2-41.4-6.6-77.8-28.9-102.5-62.8-31.3-43.1-38.7-98.6-19.6-148.5l22.4,8.6c-16.2,42.3-10,89.3,16.5,125.8,20.9,28.7,51.7,47.6,86.8,53.2,35.1,5.6,70.2-2.9,99-23.8,59.3-43.1,72.5-126.5,29.4-185.8-26.5-36.5-69.4-57-114.6-54.6l-1.2-24c53.4-2.8,103.9,21.3,135.2,64.5,50.9,70,35.3,168.4-34.7,219.3-27.1,19.7-59,30-91.9,30Z"/>
  <path class="st0" d="M595.5,714.6c-35.4,0-70.2-12-98.6-35l15.1-18.7c35.2,28.4,81.8,37.1,124.8,23.1,33.8-11,61.3-34.5,77.4-66.1,16.1-31.7,19-67.7,8-101.5-11-33.8-34.5-61.3-66.1-77.4-31.7-16.1-67.7-19-101.5-8-43,14-75.6,48.4-87.3,92.1l-23.2-6.2c13.9-51.6,52.4-92.2,103.1-108.7,39.9-13,82.4-9.6,119.8,9.4,37.4,19,65.1,51.5,78,91.4,13,39.9,9.6,82.4-9.4,119.8-19,37.4-51.5,65.1-91.4,78-16,5.2-32.4,7.7-48.6,7.7Z"/>
  <path class="st0" d="M508,560.1l-13.1-20.1c37.9-24.7,60.6-66.3,60.6-111.5,0-73.4-59.7-133-133-133s-133,59.7-133,133,22.6,86.8,60.6,111.5l-13.1,20.1c-44.8-29.1-71.5-78.3-71.5-131.6,0-86.6,70.4-157,157-157s157,70.4,157,157-26.7,102.6-71.5,131.7Z"/>
</svg>