<?xml version="1.0" encoding="UTF-8"?>
<svg id="_레이어_1" xmlns="http://www.w3.org/2000/svg" version="1.1" viewBox="0 0 841.9 1190.6">
  <!-- Generator: Adobe Illustrator 30.3.0, SVG Export Plug-In . SVG Version: 2.1.1 Build 126)  -->
  <defs>
    <style>
      .st0 {
        fill: #231d1a;
      }
    </style>
  </defs>
  <path class="st0" d="M389.7,588.3l-60.5-12.1-88.8-142.8-175.5,80.5,94.8,167,153.3-60.3,58.5,26.2,20.2-26.2-2-32.2h0Z"/>
  <path class="st0" d="M684.2,680.8l92.8-167-173.5-78.5-90.8,140.8-60.5,12.1-2,32.2,22.2,26.2,56.5-26.2,155.3,60.3h0Z"/>
  <path class="st0" d="M371.5,646.6l-30.3,54.3-161.4,40.2,20.2,191.1,189.6-38.2-10.1-167,40.3-44.3-18.2-28.2-30.3-8h.2Z"/>
  <path class="st0" d="M419.9,682.8l42.4,44.3-10.1,167,187.6,38.2,24.2-191.1-161.4-40.2-30.3-54.3-34.3,8-18.2,28.2h0Z"/>
  <path class="st0" d="M452.2,588.3l-6.1-62.4,104.9-128.7-131.1-138.8-129.1,138.8,104.9,128.7-6,62.4,30.3,12.1,32.3-12.1h0Z"/>
</svg>