<?xml version="1.0" encoding="UTF-8"?>
<svg id="_레이어_1" xmlns="http://www.w3.org/2000/svg" version="1.1" viewBox="0 0 841.9 1190.6">
  <!-- Generator: Adobe Illustrator 30.3.0, SVG Export Plug-In . SVG Version: 2.1.1 Build 126)  -->
  <defs>
    <style>
      .st0 {
        fill: none;
      }

      .st1 {
        fill: #231d1a;
      }
    </style>
  </defs>
  <rect class="st0" x="139.3" y="315.2" width="563.2" height="560.1"/>
  <path class="st1" d="M702.4,571.3c0-1.2.2-2.5.2-3.8s0-3.1-.3-4.5c-4.5-83.5-80.1-138.7-156.7-125.7-6.5-65.1-58.3-120.2-129.2-121.9-37.9-.9-76.3,15.6-101.5,44.1-19.2,21.7-29.6,47-32.6,73.9-62.8-4-124.5,36.4-139.6,100.9-14.5,61.6,17,124.4,71.4,151.2-26.5,57.2-11.7,126.8,42.9,166.2,53.8,38.8,126.1,28,170.8-16,45.9,39.6,114,47,166,8.8,53.1-39,66.5-105.8,42-162.1,39-23.1,64-63.9,66.4-110.9h0l.2-.2ZM590.7,643.4c-21.3,6.5-24.3,29.5-12,45.4,26.7,34.4,18.5,85.7-15.9,111.4-36.2,27-88,16.8-113-20.1-11.2-16.6-36.1-18.5-46.9,0-23.4,40-75.4,54.4-114.5,27.3-38.8-26.9-44.5-82.4-13.5-117.6,12.3-14,9.6-41.5-12-45.4-44.9-8.2-78.4-48.9-67.7-95.6,11.3-48.9,61.1-71.7,106.9-56.1,21.8,7.4,36.1-14.7,33.4-33.4-6.8-48.1,33.1-90.6,80.8-89.4,50.9,1.2,84.9,50.4,73.9,98.6-5.3,23.3,18.7,42.1,39.9,30.7,53.3-28.6,116.5,8.4,117.9,68.5-.9,35.7-23.3,65.5-57.5,75.9l.2-.2Z"/>
</svg>