<?xml version="1.0" encoding="UTF-8"?>
<svg id="_레이어_1" xmlns="http://www.w3.org/2000/svg" version="1.1" viewBox="0 0 841.9 1190.6">
  <!-- Generator: Adobe Illustrator 30.3.0, SVG Export Plug-In . SVG Version: 2.1.1 Build 126)  -->
  <defs>
    <style>
      .st0 {
        fill: #231d1a;
      }
    </style>
  </defs>
  <path class="st0" d="M730.4,559.8v-.5c-2.4-42-21.4-79.4-53.7-105.3-32.3-25.9-74.1-36.7-114.5-29.8l-7,1.1-.7-7.1c-3.5-34.8-18.9-67.1-43.5-91.1-25.8-25.2-58.6-39-95.2-39.9-41.1-.9-82,16.9-108.9,47.3-19.9,22.5-31.6,49.3-35,79.4l-.7,6.3-6.3-.4c-3-.2-6.2-.3-9.3-.3-30.1,0-60.3,9.6-85,26.9-28.2,19.8-47.9,48.8-55.6,81.6-15.2,64.7,17.1,133,76.6,162.4l5.8,2.8-2.7,5.9c-14,30.3-17.4,64.5-9.7,96.4,8.1,33.3,27.4,61.7,55.7,82,23.2,16.7,51,25.6,79.8,25.6s10.3-.3,15.4-.9c33.1-3.6,64.3-18.6,88.1-42l4.4-4.3,4.6,4c24.4,21.1,55.2,33.9,86.8,36.1,3.3.2,6.6.4,9.9.4,29.5,0,57.5-9.2,81.6-26.9,27.4-20.1,46-47.8,53.7-80,7.4-30.7,4.4-64.1-8.7-94.2l-2.4-5.4,5-2.9c20.7-12.2,38.1-29.6,50.4-49.9,12.4-20.7,19.6-44.6,20.9-69.4l.3-4.9c0-1,0-2.2-.2-3.3v.2ZM613.5,655.6c-8.1,2.5-13.5,7.5-15.8,14.6-2.6,8.1-.5,18.1,5.7,26,15.3,19.7,21.8,44.6,18.3,70.2-3.5,25.8-17.1,49.2-37.4,64.3-20.7,15.3-46.2,21.4-72.1,17.1-26.1-4.5-49.6-19.5-64.3-41.3-5.1-7.6-13.8-12.1-22.6-11.8-8,.3-14.7,4.4-18.9,11.5-14.1,24.2-37.6,41.4-64.4,47.3-6.8,1.5-13.6,2.3-20.6,2.3-18.9,0-37.3-5.8-53.2-16.9-21.9-15.2-36.4-39.3-39.7-66.2-3.3-27.5,5.1-55.1,23.3-75.8,6.2-7,8.2-18.3,5.1-27.4-1.7-4.9-5.7-11.1-14.8-12.8-28.4-5.2-53.4-21.3-68.7-44.4-13.8-21-18.4-46.2-12.6-71.1,6.2-26.6,22.3-48.3,45.5-61.2,14.7-8.1,31.5-12.3,48.5-12.3s23.4,1.9,34.8,5.8c7.3,2.5,13.6,1.4,19.1-3,7.2-6,11.2-17.1,9.8-27.3-3.9-27,4.5-54.5,23.1-75.3,19-21.5,46.2-33.4,74.4-32.8,27.9.7,53.8,13.7,71.1,35.9,18.3,23.5,25,53.7,18.3,82.9-2.2,9.7,1.2,19.3,9,25.3,7.7,5.9,17.5,6.6,26.3,1.9,30.1-16.2,65.5-15.7,94.6,1.2,29.1,17,46.9,47.4,47.7,81.5h0v.3c-1,43-28.2,78.9-69.3,91.5v.2Z"/>
</svg>