<?xml version="1.0" encoding="UTF-8"?>
<svg id="_레이어_1" xmlns="http://www.w3.org/2000/svg" version="1.1" viewBox="0 0 841.9 1190.6">
  <!-- Generator: Adobe Illustrator 30.3.0, SVG Export Plug-In . SVG Version: 2.1.1 Build 126)  -->
  <defs>
    <style>
      .st0 {
        fill: #231815;
      }
    </style>
  </defs>
  <path class="st0" d="M580.7,595.3c50-44.1,80.8-108.2,80.8-177.5,0-131.1-107.9-237.7-240.5-237.7s-240.5,106.6-240.5,237.7,30.7,133.4,80.8,177.5c-50,44.1-80.8,108.2-80.8,177.5,0,131.1,107.9,237.7,240.5,237.7s240.5-106.6,240.5-237.7-30.7-133.4-80.8-177.5ZM421,986.2c-119,0-215.8-95.7-215.8-213.3s28.8-122.4,75.6-162c22.7,16.2,48.4,28.6,76.4,36.2l6.5-23.5c-22.6-6.2-43.5-15.8-62.3-28.2,18.8-12.4,39.7-22,62.3-28.2l-6.5-23.5c-28,7.6-53.8,20-76.4,36.2-46.8-39.6-75.6-98.3-75.6-162,0-117.6,96.8-213.3,215.8-213.3s215.8,95.7,215.8,213.3-28.8,122.4-75.6,162c-22.7-16.2-48.4-28.6-76.4-36.2l-6.5,23.5c22.6,6.2,43.5,15.8,62.3,28.2-18.8,12.4-39.7,22-62.3,28.2l6.5,23.5c28-7.6,53.8-20,76.4-36.2,46.8,39.6,75.6,98.3,75.6,162,0,117.6-96.8,213.3-215.8,213.3Z"/>
</svg>