<?xml version="1.0" encoding="UTF-8"?>
<svg id="_레이어_1" xmlns="http://www.w3.org/2000/svg" version="1.1" viewBox="0 0 841.9 1190.6">
  <!-- Generator: Adobe Illustrator 30.3.0, SVG Export Plug-In . SVG Version: 2.1.1 Build 126)  -->
  <defs>
    <style>
      .st0 {
        fill: none;
      }

      .st1 {
        fill: #231d1a;
      }
    </style>
  </defs>
  <rect class="st0" x="171.8" y="95.6" width="498.3" height="999.4"/>
  <g>
    <path class="st1" d="M462,484c-45.9-17.3-100.4-2.7-131.9,34.7-32.3,38.4-37.9,94.4-12.4,138s76.2,65.7,125.5,57.1c55.4-9.6,93.9-58.7,97.2-113.2,0-1.3.3-2.8.2-4.2,0-1.8,0-3.6-.3-5.2-3.2-48.1-32.6-89.8-78.3-107.1h0ZM420.9,661.7c-35.7,0-65.3-29.6-65.3-65.3s29.6-65.3,65.3-65.3,64.3,29.6,65.3,65.3c-1,35.7-28.9,65.3-65.3,65.3h0Z"/>
    <path class="st1" d="M247.2,480c48.6,19.7,105.9,4.1,138.1-37.1,28.4-36.3,32-82.5,14.6-122.1,7.7-4.1,14.9-8.9,21.5-14.6,5.8,5.5,12.2,10.4,19,14.7-17.2,40.8-10.3,89.4,19,124.2,31.6,37.6,85.9,51.9,131.9,34.7,46.6-17.4,78.5-62.3,78.7-112.3,0-42.2-22.4-79.2-56.4-100.9,21.7-51.3,4.1-113.5-43.5-146.1-45.5-31.2-103-24-142.8,8.7-40.2-37.6-103.2-46.4-150.8-12.4-48.5,34.7-62,95.5-40.1,146.3-35.5,18.7-59.9,54.6-64.1,95.8-5.3,52,27.1,101.7,74.9,121.1h0ZM226.4,361.2c3.6-31.1,28.3-51.8,57.8-57.3,21.6-4,24.2-31.4,12-45.4-25.6-29.3-20.7-75.2,11.7-97.5,32.5-22.4,75.1-10,94.5,22.9,10.9,18.4,35.6,16.6,46.9,0,20.4-30,62.7-38.8,92.6-17.2,33.2,24.1,33.7,67.2,10.1,98-6.8,8.9-4.3,21.7,2.3,30.3,0,.2.3.4.5.6.4.4.7.9,1.1,1.3.2.3.5.5.7.7,1.6,1.7,3.3,3.1,5.2,4.2,2.5,1.5,5,2.5,7.4,3.1,57.6,18.8,62.8,103.1,3.3,124.1-25.9,9.1-55.8,1.1-73-20.6-21-26.4-17-60,2.8-85.8,11.2-14.6-1.3-35.3-16.2-39.9-17.5-5.5-30.5-16.1-39.8-31.8-10.9-18.4-35.6-16.6-46.9,0-11.3,16.7-27.7,25.5-47.2,29.1-21.6,4.1-24.2,31.3-12,45.4,45.2,52-12.2,131-75.3,103.3-25.9-11.3-41.7-39.6-38.4-67.6h0Z"/>
    <path class="st1" d="M669.8,818.3c-5-75.5-78.2-132.7-153.5-109.9-68.6,20.8-102.5,98.3-75.9,161.3-6.8,4.3-13.2,9.2-19,14.7-6.6-5.6-13.8-10.5-21.5-14.6,17.4-39.6,13.7-85.9-14.6-122.1-32.2-41.2-89.5-56.8-138.1-37.1-47.8,19.3-80.1,69.1-74.9,121.1,4.2,41.2,28.6,77.2,64.1,95.8-21.9,50.9-8.5,111.7,40.1,146.3,47.6,34,110.6,25.2,150.8-12.4,39.9,32.7,97.3,39.9,142.8,8.7,47.6-32.6,65.3-94.8,43.5-146.2,32.5-20.7,53.3-55.2,56-95.3.3-1.7.4-3.6.4-5.5s0-3.3-.3-4.8h0ZM568.1,885.9c-14.9,4.6-27.5,25.3-16.2,39.9,23.5,30.5,23.4,74.2-10.1,98-30.1,21.3-72,13.1-92.6-17.2-11.3-16.6-36-18.4-46.9,0-19.4,32.9-62,45.3-94.5,22.9-32.3-22.3-37.2-68.1-11.7-97.5,12.2-14.1,9.6-41.4-12-45.4-29.6-5.5-54-26.2-57.8-57.3-3.4-28.1,12.7-56,38.4-67.6,63.1-28.3,120.3,51.6,75.3,103.3-12.2,14.1-9.6,41.4,12,45.4,19.5,3.7,35.9,12.4,47.2,29.1,11.3,16.6,36,18.4,46.9,0,9.3-15.7,22.2-26.4,39.8-31.8,14.9-4.6,27.5-25.3,16.2-39.9-28.3-36.8-19.2-92,28.5-107.1,42.4-13.4,83.8,18.9,85,62.3-.8,29.6-19.2,54.1-47.6,62.9h0Z"/>
  </g>
</svg>