<?xml version="1.0" encoding="UTF-8"?>
<svg id="_레이어_1" xmlns="http://www.w3.org/2000/svg" version="1.1" viewBox="0 0 841.9 1190.6">
  <!-- Generator: Adobe Illustrator 30.3.0, SVG Export Plug-In . SVG Version: 2.1.1 Build 126)  -->
  <defs>
    <style>
      .st0 {
        fill: #231d1a;
      }
    </style>
  </defs>
  <path class="st0" d="M234.5,595.3h-124.3v124.3h124.3v-124.3Z"/>
  <path class="st0" d="M234.5,719.6h-124.3v124.3h124.3v-124.3Z"/>
  <path class="st0" d="M731.7,595.3h-124.3v124.3h124.3v-124.3Z"/>
  <path class="st0" d="M607.3,471h-124.3v124.3h124.3v-124.3Z"/>
  <path class="st0" d="M358.8,471h-124.3v124.3h124.3v-124.3Z"/>
  <path class="st0" d="M358.8,843.9h-124.3v124.3h124.3v-124.3Z"/>
  <path class="st0" d="M731.7,719.6h-124.3v124.3h124.3v-124.3Z"/>
  <path class="st0" d="M483.1,968.1h-124.3v124.3h124.3v-124.3Z"/>
  <path class="st0" d="M607.3,843.9h-124.3v124.3h124.3v-124.3Z"/>
  <path class="st0" d="M483.1,98.2h-124.3v124.3h124.3v-124.3Z"/>
  <path class="st0" d="M483.1,346.8h-124.3v124.3h124.3v-124.3Z"/>
  <path class="st0" d="M358.8,222.5h-124.3v124.3h124.3v-124.3Z"/>
  <path class="st0" d="M607.3,222.5h-124.3v124.3h124.3v-124.3Z"/>
</svg>