<?xml version="1.0" encoding="UTF-8"?>
<svg id="_레이어_1" xmlns="http://www.w3.org/2000/svg" version="1.1" viewBox="0 0 841.9 1190.6">
  <!-- Generator: Adobe Illustrator 30.3.0, SVG Export Plug-In . SVG Version: 2.1.1 Build 126)  -->
  <path d="M127.9,786.9c0-115.8,68.9-180.7,170.8-208.4v-9.7c-88.4-30.1-145.2-101-145.2-197.4s98.2-210.8,267.6-210.8,267.3,82,267.3,210.8-56.8,167.3-145.2,197.4v9.7c101.5,27.8,170.8,92.7,170.8,208.4s-100.5,243.2-292.8,243.2-292.8-104.7-292.8-243.2h-.3ZM605.7,791.5v-25.4c0-96.4-67.9-150.6-185.3-150.6s-185.3,54.2-185.3,150.6v25.4c0,96.4,67.9,150.6,185.3,150.6s185.3-54.2,185.3-150.6ZM582.8,399.1v-18.1c0-86.7-55.8-132.5-162.1-132.5s-162.1,45.8-162.1,132.5v18.1c0,86.7,55.8,132.5,162.1,132.5s162.1-45.8,162.1-132.5Z"/>
</svg>