<?xml version="1.0" encoding="UTF-8"?>
<svg id="_레이어_1" xmlns="http://www.w3.org/2000/svg" version="1.1" viewBox="0 0 841.9 1190.6">
  <!-- Generator: Adobe Illustrator 30.3.0, SVG Export Plug-In . SVG Version: 2.1.1 Build 126)  -->
  <defs>
    <style>
      .st0 {
        fill: #231d1a;
      }
    </style>
  </defs>
  <path class="st0" d="M134.9,782.3c0-113,67.3-176.4,166.7-203.5v-9.5c-86.3-29.4-141.8-98.6-141.8-192.7s95.8-205.8,261.3-205.8,260.9,80,260.9,205.8-55.5,163.3-141.8,192.7v9.5c99.1,27.1,166.7,90.5,166.7,203.5s-98.1,237.5-285.9,237.5-285.9-102.2-285.9-237.5h-.3ZM601.3,786.9v-24.8c0-94.1-66.3-147-180.9-147s-180.9,52.9-180.9,147v24.8c0,94.1,66.3,147,180.9,147s180.9-52.9,180.9-147ZM579,403.7v-17.6c0-84.6-54.5-129.4-158.2-129.4s-158.2,44.8-158.2,129.4v17.6c0,84.6,54.5,129.4,158.2,129.4s158.2-44.8,158.2-129.4Z"/>
</svg>