<?xml version="1.0" encoding="UTF-8"?>
<svg id="_레이어_1" xmlns="http://www.w3.org/2000/svg" version="1.1" viewBox="0 0 841.9 1190.6">
  <!-- Generator: Adobe Illustrator 30.3.0, SVG Export Plug-In . SVG Version: 2.1.1 Build 126)  -->
  <defs>
    <style>
      .st0 {
        fill: #231815;
      }
    </style>
  </defs>
  <path class="st0" d="M580.5,595.3c50-44.1,80.7-108.1,80.7-177.3,0-130.9-107.7-237.5-240.2-237.5s-240.2,106.5-240.2,237.5,30.7,133.2,80.7,177.3c-49.9,44.1-80.7,108.1-80.7,177.3,0,130.9,107.7,237.5,240.2,237.5s240.2-106.5,240.2-237.5-30.7-133.2-80.7-177.3ZM421,985.7c-118.8,0-215.5-95.6-215.5-213.1s28.8-122.2,75.5-161.8c22.6,16.1,48.3,28.5,76.3,36.1l6.5-23.5c-22.6-6.2-43.5-15.8-62.2-28.1,18.7-12.4,39.6-22,62.2-28.1l-6.5-23.5c-28,7.6-53.7,20-76.3,36.1-46.7-39.6-75.5-98.2-75.5-161.8,0-117.5,96.7-213.1,215.5-213.1s215.5,95.6,215.5,213.1-28.8,122.2-75.5,161.8c-22.6-16.1-48.3-28.5-76.3-36.1l-6.5,23.5c22.6,6.2,43.5,15.8,62.2,28.1-18.8,12.4-39.6,22-62.2,28.1l6.5,23.5c28-7.6,53.7-20,76.3-36.1,46.7,39.6,75.5,98.2,75.5,161.8,0,117.5-96.7,213.1-215.5,213.1Z"/>
</svg>