<?xml version="1.0" encoding="UTF-8"?>
<svg id="_레이어_1" xmlns="http://www.w3.org/2000/svg" version="1.1" viewBox="0 0 841.9 1190.6">
  <!-- Generator: Adobe Illustrator 30.3.0, SVG Export Plug-In . SVG Version: 2.1.1 Build 126)  -->
  <defs>
    <style>
      .st0 {
        fill: #231d1a;
      }
    </style>
  </defs>
  <path class="st0" d="M420.9,447.7c-80.3,0-145.6-65.3-145.6-145.6s65.3-145.7,145.6-145.7,145.6,65.3,145.6,145.7-65.3,145.6-145.6,145.6ZM420.9,189.1c-62.3,0-113,50.7-113,113s50.7,113,113,113,113-50.7,113-113-50.7-113-113-113h0Z"/>
  <path class="st0" d="M421,1034.2c-170.7,0-309.6-138.9-309.6-309.6s138.9-309.6,309.6-309.6,309.6,138.9,309.6,309.6-138.9,309.6-309.6,309.6h0ZM421,447.9c-152.5,0-276.6,124.1-276.6,276.6s124.1,276.6,276.6,276.6,276.6-124.1,276.6-276.6-124.1-276.6-276.6-276.6h0Z"/>
</svg>