<?xml version="1.0" encoding="UTF-8"?>
<svg id="_레이어_1" xmlns="http://www.w3.org/2000/svg" version="1.1" viewBox="0 0 841.9 1190.6">
  <!-- Generator: Adobe Illustrator 30.3.0, SVG Export Plug-In . SVG Version: 2.1.1 Build 126)  -->
  <defs>
    <style>
      .st0 {
        fill: #231d1a;
      }
    </style>
  </defs>
  <path class="st0" d="M420.3,319.5c32.8,0,59.5-26.5,59.5-59.2s-26.6-59.2-59.5-59.2-59.5,26.5-59.5,59.2,26.6,59.2,59.5,59.2Z"/>
  <path class="st0" d="M420.3,453.5c32.8,0,59.5-26.5,59.5-59.2s-26.6-59.2-59.5-59.2-59.5,26.5-59.5,59.2,26.6,59.2,59.5,59.2Z"/>
  <path class="st0" d="M420.3,587.6c32.8,0,59.5-26.5,59.5-59.2s-26.6-59.2-59.5-59.2-59.5,26.5-59.5,59.2,26.6,59.2,59.5,59.2Z"/>
  <path class="st0" d="M420.3,721.7c32.8,0,59.5-26.5,59.5-59.2s-26.6-59.2-59.5-59.2-59.5,26.5-59.5,59.2,26.6,59.2,59.5,59.2Z"/>
  <path class="st0" d="M420.3,855.5c32.8,0,59.5-26.5,59.5-59.2s-26.6-59.2-59.5-59.2-59.5,26.5-59.5,59.2,26.6,59.2,59.5,59.2Z"/>
  <path class="st0" d="M420.3,989.4c32.8,0,59.5-26.5,59.5-59.2s-26.6-59.2-59.5-59.2-59.5,26.5-59.5,59.2,26.6,59.2,59.5,59.2Z"/>
  <path class="st0" d="M286,453.5c32.8,0,59.5-26.5,59.5-59.2s-26.6-59.2-59.5-59.2-59.5,26.5-59.5,59.2,26.6,59.2,59.5,59.2Z"/>
  <path class="st0" d="M555.9,453.5c32.8,0,59.5-26.5,59.5-59.2s-26.6-59.2-59.5-59.2-59.5,26.5-59.5,59.2,26.6,59.2,59.5,59.2Z"/>
</svg>