<?xml version="1.0" encoding="UTF-8"?>
<svg id="_레이어_1" xmlns="http://www.w3.org/2000/svg" version="1.1" viewBox="0 0 841.9 1190.6">
  <!-- Generator: Adobe Illustrator 30.3.0, SVG Export Plug-In . SVG Version: 2.1.1 Build 126)  -->
  <defs>
    <style>
      .st0 {
        fill: #231d1a;
      }
    </style>
  </defs>
  <path class="st0" d="M365.1,340.1h-112v111.9h112v-111.9Z"/>
  <path class="st0" d="M253.1,452.1h-112v111.9h112v-111.9Z"/>
  <path class="st0" d="M700.9,452.1h-112v111.9h112v-111.9Z"/>
  <path class="st0" d="M477,228.2h-111.9v111.9h111.9v-111.9Z"/>
  <path class="st0" d="M477,452.1h-111.9v111.9h111.9v-111.9Z"/>
  <path class="st0" d="M477,899.9h-111.9v111.9h111.9v-111.9Z"/>
  <path class="st0" d="M477,787.9h-111.9v111.9h111.9v-111.9Z"/>
  <path class="st0" d="M477,564h-111.9v111.9h111.9v-111.9Z"/>
  <path class="st0" d="M477,676h-111.9v111.9h111.9v-111.9Z"/>
  <path class="st0" d="M588.9,340.1h-111.9v111.9h111.9v-111.9Z"/>
</svg>