<?xml version="1.0" encoding="UTF-8"?>
<svg id="_레이어_1" xmlns="http://www.w3.org/2000/svg" version="1.1" viewBox="0 0 841.9 1190.6">
  <!-- Generator: Adobe Illustrator 30.3.0, SVG Export Plug-In . SVG Version: 2.1.1 Build 126)  -->
  <defs>
    <style>
      .st0 {
        fill: none;
      }

      .st1 {
        fill: #231d1a;
      }
    </style>
  </defs>
  <rect class="st0" x="181.8" y="232.4" width="478.2" height="725.8"/>
  <path class="st1" d="M647,450.3c-18.3-38.7-55.4-65.2-96.6-72.6,6-74.8-52.6-145.1-132.3-145.3-80-.1-138.6,71-132.2,146.1-39.7,9-74.7,35.9-91.9,73.7-22.8,49.7-13,109,24.9,148.6,37,38.6,96,51,145.4,30.9,10.7-4.4,20.6-10.1,29.5-16.7v316.8c0,35,54.3,35,54.3,0v-316.7c8.9,6.7,18.8,12.4,29.5,16.7,50.2,20.4,110.2,7.3,147-32.6,37.2-40.4,45.8-99.5,22.3-149h.1ZM586.2,560.9c-48.2,53.8-136.3,18.1-137.9-52.4,0-2.7-.5-5.2-1.2-7.5-3.4-14.7-18.4-20.8-31.6-18.3-8.9,1.4-17,6.8-20.1,16-1.1,2.9-1.8,6.1-1.8,9.6-1.6,69.3-87.4,105.9-136.3,54.1-48.7-51.6-7.5-134.7,61.3-132.9,16.9.4,31.8-17.8,26.2-34.4-17.4-51.7,16.1-108.4,73.3-108.4s90.9,57.2,73.1,108.9c-5.5,16,9.2,35.6,26.2,34.4,32.7-2.3,63.7,11.7,79.5,41.3,15.4,28.8,11.1,65.1-10.7,89.5h0Z"/>
</svg>