<?xml version="1.0" encoding="UTF-8"?>
<svg id="_레이어_1" xmlns="http://www.w3.org/2000/svg" version="1.1" viewBox="0 0 841.9 1190.6">
  <!-- Generator: Adobe Illustrator 30.3.0, SVG Export Plug-In . SVG Version: 2.1.1 Build 126)  -->
  <defs>
    <style>
      .st0 {
        fill: #231d1a;
      }
    </style>
  </defs>
  <path class="st0" d="M420.9,985.5c-9.1,0-16.5-7.4-16.5-16.5V345.9c0-9.1,7.4-16.5,16.5-16.5s16.5,7.4,16.5,16.5v623.1c0,9.1-7.4,16.5-16.5,16.5Z"/>
  <path class="st0" d="M160.4,588.5c-4.6,0-9.2-1.9-12.5-5.7-6-6.9-5.2-17.3,1.6-23.3l260.5-226.1c6.2-5.4,15.4-5.4,21.6,0l260.6,226.1c6.9,6,7.6,16.4,1.7,23.3-6,6.9-16.4,7.6-23.3,1.7l-249.8-216.7-249.7,216.7c-3.1,2.7-7,4-10.8,4h0Z"/>
  <path class="st0" d="M160.4,464.2c-4.6,0-9.2-1.9-12.5-5.7-6-6.9-5.2-17.3,1.6-23.3l260.5-226.1c6.2-5.4,15.4-5.4,21.6,0l260.6,226.1c6.9,6,7.6,16.4,1.7,23.3-6,6.9-16.4,7.6-23.3,1.7l-249.8-216.7-249.7,216.7c-3.1,2.7-7,4-10.8,4h0Z"/>
</svg>