<?xml version="1.0" encoding="UTF-8"?>
<svg id="_레이어_1" xmlns="http://www.w3.org/2000/svg" version="1.1" viewBox="0 0 841.9 1190.6">
  <!-- Generator: Adobe Illustrator 30.3.0, SVG Export Plug-In . SVG Version: 2.1.1 Build 126)  -->
  <defs>
    <style>
      .st0 {
        fill: #231d1a;
      }
    </style>
  </defs>
  <path class="st0" d="M365.1,349.1h-112v111.9h112v-111.9Z"/>
  <path class="st0" d="M253.1,461.1h-112v111.9h112v-111.9Z"/>
  <path class="st0" d="M700.9,461.1h-112v111.9h112v-111.9Z"/>
  <path class="st0" d="M477,237.2h-111.9v111.9h111.9v-111.9h0Z"/>
  <path class="st0" d="M477,461.1h-111.9v111.9h111.9v-111.9Z"/>
  <path class="st0" d="M477,908.9h-111.9v111.9h111.9v-111.9Z"/>
  <path class="st0" d="M477,796.9h-111.9v111.9h111.9v-111.9Z"/>
  <path class="st0" d="M477,573h-111.9v111.9h111.9v-111.9Z"/>
  <path class="st0" d="M477,685h-111.9v111.9h111.9v-111.9Z"/>
  <path class="st0" d="M588.9,349.1h-111.9v111.9h111.9v-111.9Z"/>
</svg>