<?xml version="1.0" encoding="UTF-8"?>
<svg id="_레이어_1" xmlns="http://www.w3.org/2000/svg" version="1.1" viewBox="0 0 841.9 1190.6">
  <!-- Generator: Adobe Illustrator 30.3.0, SVG Export Plug-In . SVG Version: 2.1.1 Build 126)  -->
  <defs>
    <style>
      .st0 {
        fill: #231d1a;
      }
    </style>
  </defs>
  <path class="st0" d="M665.2,464.5c-78.8,0-152.9-30.7-208.6-86.4-55.7-55.7-86.4-129.8-86.4-208.7h24c0,72.4,28.2,140.5,79.4,191.7,51.2,51.2,119.3,79.4,191.7,79.4v24Z"/>
  <path class="st0" d="M176.7,464.5v-24c72.4,0,140.5-28.2,191.7-79.4,51.2-51.2,79.4-119.3,79.4-191.7h24c0,78.8-30.7,152.9-86.4,208.7-55.7,55.7-129.8,86.4-208.6,86.4Z"/>
  <rect class="st0" x="409.7" y="323" width="24" height="698.1"/>
</svg>